{
  "accessors": [
    {
      "bufferView": 2,
      "componentType": 5126,
      "count": 5776,
      "max": [
        1.0866665840148926,
        -7.45774507522583,
        3.279594898223877
      ],
      "min": [
        -2.3940048217773438,
        -16.067323684692383,
        -3.4899914264678955
      ],
      "type": "VEC3"
    },
    {
      "bufferView": 2,
      "byteOffset": 69312,
      "componentType": 5126,
      "count": 5776,
      "type": "VEC3"
    },
    {
      "bufferView": 3,
      "componentType": 5126,
      "count": 5776,
      "type": "VEC4"
    },
    {
      "bufferView": 1,
      "componentType": 5126,
      "count": 5776,
      "type": "VEC2"
    },
    {
      "bufferView": 0,
      "componentType": 5125,
      "count": 29640,
      "type": "SCALAR"
    }
  ],
  "asset": {
    "generator": "fab-model-conversion",
    "version": "2.0"
  },
  "bufferViews": [
    {
      "buffer": 0,
      "byteLength": 118560,
      "target": 34963
    },
    {
      "buffer": 0,
      "byteLength": 46208,
      "byteOffset": 118560,
      "byteStride": 8,
      "target": 34962
    },
    {
      "buffer": 0,
      "byteLength": 138624,
      "byteOffset": 164768,
      "byteStride": 12,
      "target": 34962
    },
    {
      "buffer": 0,
      "byteLength": 92416,
      "byteOffset": 303392,
      "byteStride": 16,
      "target": 34962
    }
  ],
  "buffers": [
    {
      "byteLength": 395808,
      "uri": "scene.bin"
    }
  ],
  "images": [
    {
      "uri": "textures/Unwrap1_baseColor.jpeg"
    },
    {
      "uri": "textures/Unwrap1_metallicRoughness.png"
    },
    {
      "uri": "textures/Unwrap1_normal.jpeg"
    }
  ],
  "materials": [
    {
      "name": "Unwrap1",
      "normalTexture": {
        "index": 2
      },
      "occlusionTexture": {
        "index": 1
      },
      "pbrMetallicRoughness": {
        "baseColorTexture": {
          "index": 0
        },
        "metallicRoughnessTexture": {
          "index": 1
        },
        "roughnessFactor": 0.73133082830199
      }
    }
  ],
  "meshes": [
    {
      "name": "SilverAngel_LP_Unwrap#1_0",
      "primitives": [
        {
          "attributes": {
            "NORMAL": 1,
            "POSITION": 0,
            "TANGENT": 2,
            "TEXCOORD_0": 3
          },
          "indices": 4,
          "material": 0,
          "mode": 4
        }
      ]
    }
  ],
  "nodes": [
    {
      "children": [
        1
      ],
      "matrix": [
        1.0,
        0.0,
        0.0,
        0.0,
        0.0,
        2.220446049250313e-16,
        -1.0,
        0.0,
        0.0,
        1.0,
        2.220446049250313e-16,
        0.0,
        0.0,
        0.0,
        0.0,
        1.0
      ],
      "name": "Sketchfab_model"
    },
    {
      "children": [
        2
      ],
      "matrix": [
        0.009999999776482582,
        0.0,
        0.0,
        0.0,
        0.0,
        0.0,
        0.009999999776482582,
        0.0,
        0.0,
        -0.009999999776482582,
        0.0,
        0.0,
        0.0,
        0.0,
        0.0,
        1.0
      ],
      "name": "82953e310b15409297ad8eb3b96f0dea.fbx"
    },
    {
      "children": [
        3
      ],
      "name": "RootNode"
    },
    {
      "children": [
        4
      ],
      "matrix": [
        100.0,
        0.0,
        0.0,
        0.0,
        0.0,
        2.220446049250313e-14,
        -100.0,
        0.0,
        0.0,
        100.0,
        2.220446049250313e-14,
        0.0,
        0.0,
        0.0,
        0.0,
        1.0
      ],
      "name": "SilverAngel_LP"
    },
    {
      "children": [
        5
      ],
      "matrix": [
        6.123233995736766e-17,
        1.0,
        0.0,
        0.0,
        -6.123233995736766e-17,
        3.749399456654644e-33,
        -1.0,
        0.0,
        -1.0,
        6.123233995736766e-17,
        6.123233995736766e-17,
        0.0,
        -0.341494083404541,
        1.3422315120697021,
        -7.510105133056641,
        1.0
      ],
      "name": "Object_4"
    },
    {
      "mesh": 0,
      "name": "SilverAngel_LP_Unwrap#1_0"
    }
  ],
  "samplers": [
    {
      "magFilter": 9729,
      "minFilter": 9987,
      "wrapS": 10497,
      "wrapT": 10497
    }
  ],
  "scene": 0,
  "scenes": [
    {
      "name": "Sketchfab_Scene",
      "nodes": [
        0
      ]
    }
  ],
  "textures": [
    {
      "sampler": 0,
      "source": 0
    },
    {
      "sampler": 0,
      "source": 1
    },
    {
      "sampler": 0,
      "source": 2
    }
  ]
}
