{
  "accessors": [
    {
      "bufferView": 2,
      "componentType": 5126,
      "count": 11154,
      "max": [
        1.3757922649383545,
        0.9013451933860779,
        0.9974974393844604
      ],
      "min": [
        -1.3757864236831665,
        -1.9717297554016113,
        -0.9974313974380493
      ],
      "type": "VEC3"
    },
    {
      "bufferView": 2,
      "byteOffset": 133848,
      "componentType": 5126,
      "count": 11154,
      "type": "VEC3"
    },
    {
      "bufferView": 1,
      "componentType": 5126,
      "count": 11154,
      "type": "VEC2"
    },
    {
      "bufferView": 0,
      "componentType": 5125,
      "count": 54609,
      "type": "SCALAR"
    },
    {
      "bufferView": 2,
      "byteOffset": 267696,
      "componentType": 5126,
      "count": 4676,
      "max": [
        1.000000238418579,
        1.0,
        1.0
      ],
      "min": [
        -0.9999998211860657,
        -1.198069453239441,
        -1.0
      ],
      "type": "VEC3"
    },
    {
      "bufferView": 2,
      "byteOffset": 323808,
      "componentType": 5126,
      "count": 4676,
      "type": "VEC3"
    },
    {
      "bufferView": 1,
      "byteOffset": 89232,
      "componentType": 5126,
      "count": 4676,
      "type": "VEC2"
    },
    {
      "bufferView": 0,
      "byteOffset": 218436,
      "componentType": 5125,
      "count": 24960,
      "type": "SCALAR"
    },
    {
      "bufferView": 2,
      "byteOffset": 379920,
      "componentType": 5126,
      "count": 40934,
      "max": [
        0.32834166288375854,
        -0.9736608266830444,
        -0.27669858932495117
      ],
      "min": [
        -0.1857280135154724,
        -1.2028617858886719,
        -0.6306003332138062
      ],
      "type": "VEC3"
    },
    {
      "bufferView": 2,
      "byteOffset": 871128,
      "componentType": 5126,
      "count": 40934,
      "type": "VEC3"
    },
    {
      "bufferView": 1,
      "byteOffset": 126640,
      "componentType": 5126,
      "count": 40934,
      "type": "VEC2"
    },
    {
      "bufferView": 0,
      "byteOffset": 318276,
      "componentType": 5125,
      "count": 79704,
      "type": "SCALAR"
    },
    {
      "bufferView": 2,
      "byteOffset": 1362336,
      "componentType": 5126,
      "count": 1405,
      "max": [
        1.08465576171875,
        1.0846577882766724,
        1.0
      ],
      "min": [
        -1.0846558809280396,
        -1.0846538543701172,
        -1.0
      ],
      "type": "VEC3"
    },
    {
      "bufferView": 2,
      "byteOffset": 1379196,
      "componentType": 5126,
      "count": 1405,
      "type": "VEC3"
    },
    {
      "bufferView": 1,
      "byteOffset": 454112,
      "componentType": 5126,
      "count": 1405,
      "type": "VEC2"
    },
    {
      "bufferView": 0,
      "byteOffset": 637092,
      "componentType": 5125,
      "count": 6708,
      "type": "SCALAR"
    },
    {
      "bufferView": 2,
      "byteOffset": 1396056,
      "componentType": 5126,
      "count": 1118,
      "max": [
        3.2017478942871094,
        4.122090816497803,
        1.2169352769851685
      ],
      "min": [
        -0.9999998211860657,
        -1.0000003576278687,
        -1.0
      ],
      "type": "VEC3"
    },
    {
      "bufferView": 2,
      "byteOffset": 1409472,
      "componentType": 5126,
      "count": 1118,
      "type": "VEC3"
    },
    {
      "bufferView": 1,
      "byteOffset": 465352,
      "componentType": 5126,
      "count": 1118,
      "type": "VEC2"
    },
    {
      "bufferView": 0,
      "byteOffset": 663924,
      "componentType": 5125,
      "count": 5760,
      "type": "SCALAR"
    },
    {
      "bufferView": 2,
      "byteOffset": 1422888,
      "componentType": 5126,
      "count": 1118,
      "max": [
        2.866360664367676,
        1.977947473526001,
        0.41695573925971985
      ],
      "min": [
        0.2590861916542053,
        -0.9643605947494507,
        -0.3705398440361023
      ],
      "type": "VEC3"
    },
    {
      "bufferView": 2,
      "byteOffset": 1436304,
      "componentType": 5126,
      "count": 1118,
      "type": "VEC3"
    },
    {
      "bufferView": 1,
      "byteOffset": 474296,
      "componentType": 5126,
      "count": 1118,
      "type": "VEC2"
    },
    {
      "bufferView": 0,
      "byteOffset": 686964,
      "componentType": 5125,
      "count": 5760,
      "type": "SCALAR"
    },
    {
      "bufferView": 2,
      "byteOffset": 1449720,
      "componentType": 5126,
      "count": 3180,
      "max": [
        5.54727840423584,
        0.18180625140666962,
        2.9275383949279785
      ],
      "min": [
        -1.1323615312576294,
        -1.1323626041412354,
        -1.0
      ],
      "type": "VEC3"
    },
    {
      "bufferView": 2,
      "byteOffset": 1487880,
      "componentType": 5126,
      "count": 3180,
      "type": "VEC3"
    },
    {
      "bufferView": 1,
      "byteOffset": 483240,
      "componentType": 5126,
      "count": 3180,
      "type": "VEC2"
    },
    {
      "bufferView": 0,
      "byteOffset": 710004,
      "componentType": 5125,
      "count": 15444,
      "type": "SCALAR"
    }
  ],
  "asset": {
    "generator": "fab-model-conversion",
    "version": "2.0"
  },
  "bufferViews": [
    {
      "buffer": 0,
      "byteLength": 771780,
      "target": 34963
    },
    {
      "buffer": 0,
      "byteLength": 508680,
      "byteOffset": 771780,
      "byteStride": 8,
      "target": 34962
    },
    {
      "buffer": 0,
      "byteLength": 1526040,
      "byteOffset": 1280460,
      "byteStride": 12,
      "target": 34962
    }
  ],
  "buffers": [
    {
      "byteLength": 2806500,
      "uri": "scene.bin"
    }
  ],
  "extensionsUsed": [
    "KHR_materials_specular"
  ],
  "images": [
    {
      "uri": "textures/Material.001_baseColor.png"
    }
  ],
  "materials": [
    {
      "doubleSided": true,
      "name": "Material.001",
      "pbrMetallicRoughness": {
        "baseColorTexture": {
          "index": 0
        },
        "metallicFactor": 0.0,
        "roughnessFactor": 0.8040408205773457
      }
    },
    {
      "doubleSided": true,
      "name": "White",
      "pbrMetallicRoughness": {
        "baseColorFactor": [
          0.8,
          0.8,
          0.8,
          1.0
        ],
        "metallicFactor": 0.0
      }
    },
    {
      "doubleSided": true,
      "name": "Black",
      "pbrMetallicRoughness": {
        "baseColorFactor": [
          0.0,
          0.0,
          0.0,
          1.0
        ],
        "metallicFactor": 0.0,
        "roughnessFactor": 0.8040408205773457
      }
    },
    {
      "doubleSided": true,
      "extensions": {
        "KHR_materials_specular": {
          "specularFactor": 1
        }
      },
      "name": "Bamboo",
      "pbrMetallicRoughness": {
        "baseColorFactor": [
          0.22349400000000008,
          0.401969,
          0.08328999999999995,
          1.0
        ],
        "metallicFactor": 0.15979455094881104,
        "roughnessFactor": 0.0
      }
    }
  ],
  "meshes": [
    {
      "name": "Body_Material.001_0",
      "primitives": [
        {
          "attributes": {
            "NORMAL": 1,
            "POSITION": 0,
            "TEXCOORD_0": 2
          },
          "indices": 3,
          "material": 0,
          "mode": 4
        }
      ]
    },
    {
      "name": "Head_White_0",
      "primitives": [
        {
          "attributes": {
            "NORMAL": 5,
            "POSITION": 4,
            "TEXCOORD_0": 6
          },
          "indices": 7,
          "material": 1,
          "mode": 4
        }
      ]
    },
    {
      "name": "Head_Black_0",
      "primitives": [
        {
          "attributes": {
            "NORMAL": 9,
            "POSITION": 8,
            "TEXCOORD_0": 10
          },
          "indices": 11,
          "material": 2,
          "mode": 4
        }
      ]
    },
    {
      "name": "Bamboo_Bamboo_0",
      "primitives": [
        {
          "attributes": {
            "NORMAL": 13,
            "POSITION": 12,
            "TEXCOORD_0": 14
          },
          "indices": 15,
          "material": 3,
          "mode": 4
        }
      ]
    },
    {
      "name": "Eyes_Black_0",
      "primitives": [
        {
          "attributes": {
            "NORMAL": 17,
            "POSITION": 16,
            "TEXCOORD_0": 18
          },
          "indices": 19,
          "material": 2,
          "mode": 4
        }
      ]
    },
    {
      "name": "Eyes_White_0",
      "primitives": [
        {
          "attributes": {
            "NORMAL": 21,
            "POSITION": 20,
            "TEXCOORD_0": 22
          },
          "indices": 23,
          "material": 1,
          "mode": 4
        }
      ]
    },
    {
      "name": "Ears_Black_0",
      "primitives": [
        {
          "attributes": {
            "NORMAL": 25,
            "POSITION": 24,
            "TEXCOORD_0": 26
          },
          "indices": 27,
          "material": 2,
          "mode": 4
        }
      ]
    }
  ],
  "nodes": [
    {
      "children": [
        1
      ],
      "matrix": [
        1.0,
        0.0,
        0.0,
        0.0,
        0.0,
        2.220446049250313e-16,
        -1.0,
        0.0,
        0.0,
        1.0,
        2.220446049250313e-16,
        0.0,
        0.0,
        0.0,
        0.0,
        1.0
      ],
      "name": "Sketchfab_model"
    },
    {
      "children": [
        2
      ],
      "matrix": [
        0.009999999776482582,
        0.0,
        0.0,
        0.0,
        0.0,
        0.0,
        0.009999999776482582,
        0.0,
        0.0,
        -0.009999999776482582,
        0.0,
        0.0,
        0.0,
        0.0,
        0.0,
        1.0
      ],
      "name": "6254534aa2fa42d1b34ee66fab45f43d.fbx"
    },
    {
      "children": [
        3,
        5,
        8,
        10,
        13
      ],
      "name": "RootNode"
    },
    {
      "children": [
        4
      ],
      "matrix": [
        100.0,
        0.0,
        0.0,
        0.0,
        0.0,
        -1.629206793918314e-05,
        -99.99999999999868,
        0.0,
        0.0,
        145.20828247070122,
        -2.3657432033447917e-05,
        0.0,
        0.0,
        0.0,
        0.0,
        1.0
      ],
      "name": "Body"
    },
    {
      "mesh": 0,
      "name": "Body_Material.001_0"
    },
    {
      "children": [
        6,
        7
      ],
      "matrix": [
        112.85570526123047,
        0.0,
        0.0,
        0.0,
        0.0,
        -1.9156125529192243e-05,
        -117.57946014404142,
        0.0,
        0.0,
        106.91140747070172,
        -1.7418079139863874e-05,
        0.0,
        0.0,
        191.31602478027344,
        0.0,
        1.0
      ],
      "name": "Head"
    },
    {
      "mesh": 1,
      "name": "Head_White_0"
    },
    {
      "mesh": 2,
      "name": "Head_Black_0"
    },
    {
      "children": [
        9
      ],
      "matrix": [
        10.311039584135722,
        -1.3148768800274553,
        -8.340596597406614e-08,
        0.0,
        -0.34217658788475086,
        -2.6832896429956614,
        -9.932767218052511,
        0.0,
        11.685544183704359,
        91.63604027787031,
        -25.15759726906127,
        0.0,
        -0.7251760363578796,
        44.48456573486328,
        155.6039276123047,
        1.0
      ],
      "name": "Bamboo"
    },
    {
      "mesh": 3,
      "name": "Bamboo_Bamboo_0"
    },
    {
      "children": [
        11,
        12
      ],
      "matrix": [
        26.077081947049084,
        0.45146257947614143,
        17.00421292444607,
        0.0,
        10.44588360061667,
        -3.0377740587344566,
        -15.938798376286746,
        0.0,
        2.3038947863703476,
        30.743068591076604,
        -4.349404380979741,
        0.0,
        -46.45954513549805,
        193.29611206054688,
        100.82071685791016,
        1.0
      ],
      "name": "Eyes"
    },
    {
      "mesh": 4,
      "name": "Eyes_Black_0"
    },
    {
      "mesh": 5,
      "name": "Eyes_White_0"
    },
    {
      "children": [
        14
      ],
      "matrix": [
        24.0197907232108,
        19.06966775128531,
        1.2843639751155868e-07,
        0.0,
        -1.2791409388996327e-06,
        1.4396443565957413e-06,
        25.469089508056566,
        0.0,
        28.404537464776087,
        -35.777815030234976,
        3.4489154427514385e-06,
        0.0,
        -79.7122802734375,
        254.99713134765625,
        -15.086236953735352,
        1.0
      ],
      "name": "Ears"
    },
    {
      "mesh": 6,
      "name": "Ears_Black_0"
    }
  ],
  "samplers": [
    {
      "magFilter": 9729,
      "minFilter": 9987,
      "wrapS": 10497,
      "wrapT": 10497
    }
  ],
  "scene": 0,
  "scenes": [
    {
      "name": "Sketchfab_Scene",
      "nodes": [
        0
      ]
    }
  ],
  "textures": [
    {
      "sampler": 0,
      "source": 0
    }
  ]
}
